<svg xmlns="http://www.w3.org/2000/svg" viewBox="0 0 600 420"><defs><linearGradient id="bg" x2="0" y2="1"><stop stop-color="#25150f"/><stop offset="1" stop-color="#080606"/></linearGradient><linearGradient id="bun" x2="0" y2="1"><stop stop-color="#e6a044"/><stop offset="1" stop-color="#a95d24"/></linearGradient><linearGradient id="meat" x2="0" y2="1"><stop stop-color="#5b2118"/><stop offset="1" stop-color="#24100c"/></linearGradient></defs><rect width="600" height="420" fill="url(#bg)"/><ellipse cx="300" cy="365" rx="190" ry="25" fill="#000" opacity=".55"/><g stroke="#1a0b07" stroke-width="6" stroke-linejoin="round"><path d="M145 155 Q300 60 455 155 L445 205 Q300 245 155 205Z" fill="url(#bun)"/><g fill="#f8d58a" stroke="none"><ellipse cx="225" cy="140" rx="7" ry="3"/><ellipse cx="275" cy="112" rx="7" ry="3"/><ellipse cx="340" cy="120" rx="7" ry="3"/><ellipse cx="390" cy="150" rx="7" ry="3"/></g><path d="M150 205 Q300 185 450 205 L430 230 Q300 245 170 230Z" fill="#f2c84b"/><path d="M205 230 Q300 210 395 230 L380 250 Q300 235 220 250Z" fill="#69a84f"/><path d="M220 257 Q300 245 380 257 L365 275 Q300 265 235 275Z" fill="#e34b35"/><path d="M175 275 Q300 250 425 275 L410 325 Q300 350 190 325Z" fill="url(#meat)"/><path d="M190 325 Q300 345 410 325 L395 350 Q300 372 205 350Z" fill="#f3b93d"/><path d="M155 350 Q300 330 445 350 L425 385 Q300 405 175 385Z" fill="url(#bun)"/></g><text x="300" y="402" text-anchor="middle" font-family="Arial,sans-serif" font-size="18" fill="#f4c56a" letter-spacing="3">X-SALADA</text></svg>